<mxfile host="app.diagrams.net" modified="2023-06-28T02:39:56.088Z" agent="Mozilla/5.0 (Macintosh; Intel Mac OS X 10_15_7) AppleWebKit/537.36 (KHTML, like Gecko) Chrome/114.0.0.0 Safari/537.36" etag="uAZDzRw6z-mrh8RFdYvi" version="21.2.7" type="github">
  <diagram name="第 1 页" id="1jhBmE_9lzuP1JHzppcA">
    <mxGraphModel dx="1562" dy="810" grid="1" gridSize="10" guides="1" tooltips="1" connect="1" arrows="1" fold="1" page="1" pageScale="1" pageWidth="2336" pageHeight="1654" math="0" shadow="0">
      <root>
        <mxCell id="0" />
        <mxCell id="1" parent="0" />
        <mxCell id="1KwbzKLhN4W5CRPrfGpO-2" value="" style="rounded=0;whiteSpace=wrap;html=1;" vertex="1" parent="1">
          <mxGeometry x="280" y="200" width="1000" height="590" as="geometry" />
        </mxCell>
        <mxCell id="1KwbzKLhN4W5CRPrfGpO-3" value="K8s cluster" style="text;html=1;strokeColor=none;fillColor=none;align=center;verticalAlign=middle;whiteSpace=wrap;rounded=0;" vertex="1" parent="1">
          <mxGeometry x="280" y="170" width="90" height="20" as="geometry" />
        </mxCell>
        <mxCell id="1KwbzKLhN4W5CRPrfGpO-4" value="Kind:Gateway&lt;br&gt;&lt;br&gt;&lt;div style=&quot;text-align: left;&quot;&gt;&lt;span style=&quot;font-size: 8px; background-color: initial; margin: 0px; padding: 0px; border: 0px; font-variant-numeric: inherit; font-variant-east-asian: inherit; font-variant-alternates: inherit; font-stretch: inherit; line-height: inherit; font-family: Consolas, Monaco, &amp;quot;Andale Mono&amp;quot;, monospace; font-optical-sizing: inherit; font-kerning: inherit; font-feature-settings: inherit; font-variation-settings: inherit; vertical-align: baseline; color: rgb(133, 153, 0);&quot; class=&quot;token key atrule&quot;&gt;selector&lt;/span&gt;&lt;span style=&quot;font-size: 8px; background-color: initial; margin: 0px; padding: 0px; border: 0px; font-variant-numeric: inherit; font-variant-east-asian: inherit; font-variant-alternates: inherit; font-stretch: inherit; line-height: inherit; font-family: Consolas, Monaco, &amp;quot;Andale Mono&amp;quot;, monospace; font-optical-sizing: inherit; font-kerning: inherit; font-feature-settings: inherit; font-variation-settings: inherit; vertical-align: baseline; color: rgb(88, 110, 117);&quot; class=&quot;token punctuation&quot;&gt;:&lt;/span&gt;&lt;/div&gt;   &lt;font style=&quot;font-size: 8px;&quot;&gt;&lt;div style=&quot;text-align: left;&quot;&gt;&lt;span style=&quot;background-color: initial; margin: 0px; padding: 0px; border: 0px; font-variant-numeric: inherit; font-variant-east-asian: inherit; font-variant-alternates: inherit; font-stretch: inherit; line-height: inherit; font-family: Consolas, Monaco, &amp;quot;Andale Mono&amp;quot;, monospace; font-optical-sizing: inherit; font-kerning: inherit; font-feature-settings: inherit; font-variation-settings: inherit; vertical-align: baseline; color: rgb(133, 153, 0);&quot; class=&quot;token key atrule&quot;&gt;&amp;nbsp; istio&lt;/span&gt;&lt;span style=&quot;background-color: initial; margin: 0px; padding: 0px; border: 0px; font-variant-numeric: inherit; font-variant-east-asian: inherit; font-variant-alternates: inherit; font-stretch: inherit; line-height: inherit; font-family: Consolas, Monaco, &amp;quot;Andale Mono&amp;quot;, monospace; font-optical-sizing: inherit; font-kerning: inherit; font-feature-settings: inherit; font-variation-settings: inherit; vertical-align: baseline; color: rgb(88, 110, 117);&quot; class=&quot;token punctuation&quot;&gt;:&lt;/span&gt;&lt;span style=&quot;color: rgb(101, 123, 131); font-family: Consolas, Monaco, &amp;quot;Andale Mono&amp;quot;, monospace; background-color: rgb(248, 248, 248);&quot;&gt; ingressgateway&lt;br&gt;&lt;br&gt;&lt;div&gt;- hosts:&lt;/div&gt;&lt;div&gt;&amp;nbsp; - aibridgeservice-aiats1.wsjcmw-a-4.prod.infra.webex.com&lt;/div&gt;&lt;/span&gt;&lt;/div&gt;&lt;/font&gt;" style="rounded=1;whiteSpace=wrap;html=1;" vertex="1" parent="1">
          <mxGeometry x="290" y="390" width="200" height="120" as="geometry" />
        </mxCell>
      </root>
    </mxGraphModel>
  </diagram>
</mxfile>
